<?xml version="1.0" encoding="UTF-8" standalone="no"?>
<svg
   xmlns:dc="http://purl.org/dc/elements/1.1/"
   xmlns:cc="http://creativecommons.org/ns#"
   xmlns:rdf="http://www.w3.org/1999/02/22-rdf-syntax-ns#"
   xmlns:svg="http://www.w3.org/2000/svg"
   xmlns="http://www.w3.org/2000/svg"
   viewBox="0 0 730.66669 520"
   height="520"
   width="730.66669"
   xml:space="preserve"
   id="svg2"
   version="1.1"><metadata
     id="metadata8"><rdf:RDF><cc:Work
         rdf:about=""><dc:format>image/svg+xml</dc:format><dc:type
           rdf:resource="http://purl.org/dc/dcmitype/StillImage" /></cc:Work></rdf:RDF></metadata><defs
     id="defs6" /><g
     transform="matrix(1.3333333,0,0,-1.3333333,0,520)"
     id="g10"><g
       transform="scale(0.1)"
       id="g12"><path
         id="path14"
         style="fill:#a5daca;fill-opacity:1;fill-rule:nonzero;stroke:none"
         d="M 0,1073.87 H 5480 V 3900 H 0 Z" /><path
         id="path16"
         style="fill:#92cfbe;fill-opacity:1;fill-rule:nonzero;stroke:none"
         d="M 1601.03,1100 H 0.253906 V 2173.23 H 140.84 v 198.94 h 108.183 v -198.94 h 10.821 v 424.38 L 541.055,2480.94 V 1823.07 H 691.934 V 2915.92 H 858.32 v 160.84 h 187.43 v -160.84 h 76.59 V 1823.07 h 110.92 v 148.56 l 367.77,-206.89 V 1559.56 H 709.355 V 1445 H 700 v -75 h 9.355 V 1139.61 H 1601.03 V 1100" /><path
         id="path18"
         style="fill:#92cfbe;fill-opacity:1;fill-rule:nonzero;stroke:none"
         d="M 5480,1073.87 H 1603.67 v 65.74 h 117.11 v 419.95 h -117.11 v 604.97 l 64.9,59.44 v 67.83 c 6.14,3.27 12.12,6.2 18.06,8.96 v 261.85 c 0,4.81 5.94,17.69 19.47,30.12 v 29 c 0,3.14 3.95,10.37 12.21,17.94 v 28.07 c 0,3.19 4.79,11.39 15.07,19.02 v 21.83 c 0,2.43 3.83,8.86 12.09,14.6 v 16.57 c 0,2.82 3.61,11.06 11.34,17.33 v 32.19 c 0,3.82 4.6,18.65 15.02,21.84 0.24,9.97 3.38,135.71 4.44,144.83 0.33,2.75 0.8,3.73 1.3,3.73 1.22,0 2.63,-5.85 2.63,-5.85 l -1.12,-142.72 c 10.69,-3.33 14.23,-21.83 14.23,-21.83 v -28.26 c 12.11,-7.01 16.3,-21.26 16.3,-21.26 v -12.69 c 13.29,-7.44 18.12,-18.48 18.12,-18.48 v -17.63 c 15.42,-10.11 21.11,-23.22 21.11,-23.22 v -27.64 c 9.71,-9.53 13.59,-18.37 13.59,-18.37 v -29.29 c 16.42,-14.78 23.46,-29.83 23.46,-29.83 v -253.55 c 17.78,-8.79 27.17,-17.26 27.17,-17.26 v -71.51 l 66.41,-55.76 v -150.72 h -112.98 v -877.68 h 935.68 v 877.68 h -142.4 v 945.2 h 56.31 v 38.06 h 244.7 v -38.06 h 80.98 v -566.49 l 346.34,-144.58 v -198.36 h -373.25 v -913.02 h 1038.19 v 913.02 h -453.59 v 346.06 l 39.85,37.09 v 143.21 h 60.49 v 198.73 h 63.03 v 83.95 h 49.74 l 0.08,1.23 118.98,99.37 6.56,-100.6 h 48.91 v -83.95 h 63.07 v -198.73 h 60.47 v -672.06 h 224.47 v 193.44 h 32.54 v 64.51 h 28.8 v -64.51 h 29.22 v 64.51 h 28.8 v -42.02 h -14.87 v -983.25 h 791.13 v 983.25 h -30.95 v 244.18 l 209.11,108.99 v -396.37 h 8.04 v 185.8 H 5480 V 1073.87 m -2983.63,939.94 h -464.44 v 648.55 h 74.92 v 172.6 h 89.89 v -133.37 h 247.19 v -39.23 h 52.44 v -648.55 m 1002.01,35.77 h -84.24 v 32.26 h 84.24 v -32.26 m 1589.2,70.23 h -320.05 v 650.46 h 56.91 v 150.19 h 139.41 v -150.19 h 123.73 v -650.46" /><path
         id="path20"
         style="fill:#f7f8ed;fill-opacity:1;fill-rule:nonzero;stroke:none"
         d="m 4769.03,3263.51 c -26.23,0 -49.67,8.42 -64.88,22.33 -16.35,-9.24 -34.79,-15.75 -54.72,-18.65 -7.71,-1.12 -15.37,-1.66 -22.91,-1.66 -42.58,0 -81.72,17.28 -108.63,45.64 -17.52,-16.68 -43.1,-27.24 -71.64,-27.24 -52.84,0 -95.64,35.93 -95.64,80.25 0,44.31 42.8,80.26 95.64,80.26 14.22,0 27.69,-2.68 39.81,-7.35 14.7,53.16 62.09,96.01 123.43,104.93 7.69,1.12 15.31,1.66 22.83,1.66 34.11,0 65.98,-11.14 91.18,-30.13 17.21,29.77 48.49,52.07 86.72,57.62 6.1,0.88 12.15,1.31 18.12,1.31 56.63,0 105.6,-38.71 113.46,-92.87 1.11,-7.64 1.32,-15.2 0.77,-22.61 l 2.46,0.48 c 4.85,0.7 9.66,1.04 14.41,1.04 45.08,0 84.04,-30.8 90.31,-73.9 6.91,-47.63 -28.74,-92.25 -79.67,-99.66 -4.85,-0.7 -9.65,-1.04 -14.39,-1.04 -40.24,0 -75.57,24.63 -87.14,60.61 l 0.18,-0.8 c 5.29,-36.25 -31.22,-71.59 -81.5,-78.89 -6.17,-0.89 -12.26,-1.33 -18.2,-1.33 m 96.13,96.65 -1.74,-0.56 c 1.15,-2.15 2.12,-4.35 2.93,-6.65 -0.35,1.62 -0.75,3.22 -1,4.88 l -0.19,2.33" /><path
         id="path22"
         style="fill:#f7f8ed;fill-opacity:1;fill-rule:nonzero;stroke:none"
         d="m 3183.91,3254.22 c -16.88,0 -31.93,5.41 -41.7,14.35 -10.51,-5.94 -22.37,-10.12 -35.17,-11.98 -4.97,-0.72 -9.89,-1.07 -14.75,-1.07 -27.37,0 -52.53,11.11 -69.82,29.34 -11.25,-10.72 -27.69,-17.5 -46.04,-17.5 -33.97,0 -61.51,23.07 -61.51,51.58 0,28.48 27.54,51.58 61.51,51.58 9.15,0 17.81,-1.73 25.6,-4.74 9.45,34.18 39.89,61.73 79.33,67.47 4.93,0.71 9.82,1.06 14.64,1.06 21.94,0 42.44,-7.16 58.65,-19.35 11.06,19.12 31.15,33.46 55.72,37.03 3.91,0.57 7.79,0.85 11.62,0.85 36.42,0 67.92,-24.88 73.01,-59.71 0.7,-4.9 0.83,-9.77 0.48,-14.54 l 1.6,0.31 c 3.12,0.46 6.21,0.67 9.26,0.67 28.95,0 54,-19.8 58.02,-47.5 4.47,-30.62 -18.47,-59.29 -51.2,-64.07 -3.1,-0.45 -6.18,-0.66 -9.22,-0.66 -25.91,0 -48.67,15.87 -56.09,39.04 l 0.13,-0.59 c 3.42,-23.31 -20.03,-46.01 -52.35,-50.71 -3.97,-0.58 -7.89,-0.86 -11.72,-0.86 m 61.79,62.12 -1.12,-0.35 c 0.73,-1.39 1.36,-2.83 1.88,-4.31 -0.23,1.07 -0.48,2.09 -0.64,3.17 l -0.12,1.49" /><path
         id="path24"
         style="fill:#f7f8ed;fill-opacity:1;fill-rule:nonzero;stroke:none"
         d="m 703.066,3117.23 c -7.082,0 -14.316,0.32 -21.64,0.97 -40.875,3.66 -76.797,17.08 -101.684,35.66 -12.183,-4.03 -25.543,-6.24 -39.508,-6.24 -3.933,0 -7.914,0.18 -11.929,0.54 -58.657,5.24 -102.801,47.49 -98.633,94.41 3.918,43.66 48.363,75.9 101.836,75.9 3.554,0 7.16,-0.14 10.789,-0.43 6.734,47.27 52.68,81.98 107.308,81.98 3.825,0 7.704,-0.17 11.602,-0.52 21.148,-1.88 40.379,-8.83 56.41,-19.19 14.457,5.87 30.649,9.17 47.723,9.17 3.922,0 7.89,-0.18 11.89,-0.53 53.254,-4.76 94.918,-39.79 102.262,-82.28 71.457,-12.39 123.668,-51.48 119.969,-92.85 -3.656,-41.04 -61.039,-70.23 -132.793,-70.23 -7.91,0 -15.996,0.35 -24.203,1.08 -11.27,1.01 -22.125,2.72 -32.563,4.96 -23.679,-19.99 -62.511,-32.4 -106.836,-32.4" /><path
         id="path26"
         style="fill:#f7f8ed;fill-opacity:1;fill-rule:nonzero;stroke:none"
         d="m 1970.03,2865.49 c -2.91,0 -5.84,0.13 -8.81,0.4 -25.53,2.27 -47.34,14.09 -60.64,30.6 -4.76,-0.98 -9.73,-1.56 -14.87,-1.56 -1.97,0 -3.97,0.08 -5.99,0.27 -32.41,2.9 -56.79,26.25 -54.46,52.16 2.13,24.13 26.71,41.94 56.25,41.94 2.01,0 4.05,-0.09 6.1,-0.26 3.73,26.13 29,45.34 59.19,45.34 2.1,0 4.23,-0.09 6.37,-0.28 11.71,-1.05 22.27,-4.99 31.16,-10.74 8.05,3.29 17.06,5.19 26.58,5.19 2.11,0 4.25,-0.1 6.4,-0.29 29.38,-2.63 52.34,-21.99 56.42,-45.46 39.53,-6.83 68.42,-28.44 66.36,-51.31 -2.02,-22.69 -33.72,-38.82 -73.37,-38.82 -4.37,0 -8.85,0.2 -13.38,0.61 -5.96,0.52 -11.71,1.4 -17.24,2.55 -13.6,-18.42 -38.21,-30.34 -66.07,-30.34" /><path
         id="path28"
         style="fill:#7c756d;fill-opacity:1;fill-rule:nonzero;stroke:none"
         d="m 0,970 h 5480 v 178.871 H 0 Z" /><path
         id="path30"
         style="fill:#b6b1aa;fill-opacity:1;fill-rule:nonzero;stroke:none"
         d="M 0,0 H 5480 V 1019.17 H 0 Z" /><path
         id="path32"
         style="fill:#6a6158;fill-opacity:1;fill-rule:nonzero;stroke:none"
         d="m 0,920 h 5480 v 100 H 0 Z" /><path
         id="path34"
         style="fill:#f7eac3;fill-opacity:1;fill-rule:nonzero;stroke:none"
         d="m 2885.61,1660.14 h 45.17 l 17.01,100.01 h -79.2 l 17.02,-100.01" /><path
         id="path36"
         style="fill:#473b31;fill-opacity:1;fill-rule:nonzero;stroke:none"
         d="m 2931.19,1669.91 h -20.14 v 85.54 h 35.2 z m -45.39,0 -15.1,85.54 h 35.2 v -85.54 z m 60.78,95.34 -30.86,27.87 v 18.07 h -14.49 v -18.07 l -30.82,-27.87 h -17.66 v -9.8 h 12.8 l 17.4,-98.81 v -0.35 h 15.33 v -411.93 h -15.33 v -153.21 h 51.07 v 153.21 h -15.31 v 411.93 h 15.31 v 0.35 l 17.44,98.81 h 12.8 v 9.8 h -17.68" /><path
         id="path38"
         style="fill:#f7eac3;fill-opacity:1;fill-rule:nonzero;stroke:none"
         d="m 4262.67,1664.9 -33.32,-0.02 -18.91,77.19 66.7,-1.54 -14.47,-75.63" /><path
         id="path40"
         style="fill:#473b31;fill-opacity:1;fill-rule:nonzero;stroke:none"
         d="m 4247.26,1730.41 h 26.38 l -11.85,-64.39 h -14.53 z m -2.82,-64.39 h -12.81 l -14,64.39 h 26.81 z m 32.15,-381.02 5.12,6.45 h 0.45 v 0.57 l 0.17,0.28 h -0.17 v 8.16 h -0.98 c 0,0 -17.42,1.84 -24.55,21.49 l 8.48,7.27 h -0.82 l -9.81,7.64 h -2.28 l 6.31,6.93 -0.39,0.02 -6.57,6.65 h 0.04 v 273.35 c 1.33,0.21 3.36,0.88 5.8,3.12 3.46,3.2 5.04,8.77 4.81,16.53 -0.14,4.62 2.03,9.25 5.62,10.71 1.15,0.46 5.69,2.03 8.65,-1.94 1.9,-2.53 1.61,-6.61 1.06,-8.38 l -0.47,-1.1 c -0.82,2.02 -2.68,3.32 -4.65,2.99 -2.32,-0.36 -3.88,-2.78 -3.47,-5.41 0.44,-2.58 2.67,-4.37 5.02,-4 l 1.69,0.76 c 2.19,0.76 3.93,3.15 4.87,4.65 0.8,1.24 1.79,8.44 -1.35,12.43 -2.85,3.62 -7.68,4.74 -12.44,2.78 -4.94,-1.99 -7.99,-6.68 -7.76,-13.92 0.2,-6.06 -0.89,-11 -3.16,-13.17 -1.23,-1.15 -2.91,-1.77 -4.22,-2.13 v 12 h 0.61 l 2.2,2.32 c 0,0 -0.6,15.51 6.25,21.16 l 3.13,0.06 12.5,67.14 h 15.7 c 0,0 -30.6,34.67 -39.06,45.88 l -3.75,-0.06 v 2.77 h 3.07 v 7.53 h -5.73 l 0.28,4.11 c 5.78,12.02 -2.78,19.53 -2.78,19.53 -7.85,-11.3 -1.34,-19.53 -1.34,-19.53 v -4.11 h -6.86 V 1779 h 3.42 v -2.83 l -3.83,-0.02 -0.31,-0.54 -0.2,-0.02 -0.15,-0.57 c -5.9,-9.71 -40.02,-44.61 -40.02,-44.61 h 19.61 l 14,-67.14 3.09,-0.46 c 0,0 6.87,-12.5 5.64,-20.97 l 2.11,-2.11 h 1.25 v -12.35 c -0.7,0.05 -3.91,0.53 -5.96,2.48 -2.26,2.17 -3.38,7.11 -3.18,13.17 0.21,7.24 -2.85,11.93 -7.74,13.92 -4.78,1.96 -9.62,0.84 -12.46,-2.78 -3.16,-3.99 -2.16,-11.19 -1.36,-12.43 1.05,-1.68 3.22,-4.5 5.78,-4.73 0.84,-0.53 1.79,-0.86 2.81,-0.68 2.32,0.39 3.91,2.79 3.46,5.41 -0.43,2.59 -2.68,4.39 -5,4 -1.68,-0.25 -2.91,-1.6 -3.36,-3.28 l -0.69,1.39 c -0.56,1.77 -0.85,5.85 1.06,8.38 2.99,3.97 7.5,2.4 8.63,1.94 3.6,-1.46 5.8,-6.09 5.65,-10.71 -0.26,-7.76 1.36,-13.33 4.76,-16.53 3.97,-3.65 7.09,-3.24 7.31,-3.19 l 0.29,1.92 v -275.2 h -0.51 l -4.78,-5.93 h -0.59 l 0.27,-0.41 -0.35,-0.42 h 0.67 l 4.84,-6.84 h -2.6 l -8.34,-7.91 h 0.71 l 6.62,-6.94 h -0.45 c 0,0 -16.13,-22.83 -26.7,-21.55 h -1.93 v -9.01 h 1.11 l 6.6,-6.24 v -88.55 l -6.68,-5.56 h -0.98 l 0.43,-0.48 -0.43,-0.36 h 0.73 l 6.93,-7.67 v -54.4 h -0.18 l -7.65,-8.93 h 0.47 v -28.11 h 73.88 v 28.11 h 0.47 l -5.74,8.93 h 0.18 v 54.34 l 5.23,7.73 h 0.57 l -0.34,0.36 0.34,0.48 h -0.76 l -5.04,5.59 V 1285 h 0.17" /><path
         id="path42"
         style="fill:#696158;fill-opacity:1;fill-rule:nonzero;stroke:none"
         d="m 4249.64,1618.62 h 119.328 v 2.668 H 4249.64 Z" /><path
         id="path44"
         style="fill:#696158;fill-opacity:1;fill-rule:nonzero;stroke:none"
         d="m 4123.62,1618.62 h 119.32 v 2.668 h -119.32 z" /><path
         id="path46"
         style="fill:#f7eac3;fill-opacity:1;fill-rule:nonzero;stroke:none"
         d="m 4264.38,1450.39 h 91.1797 v 173.59 H 4264.38 Z" /><path
         id="path48"
         style="fill:#f7eac3;fill-opacity:1;fill-rule:nonzero;stroke:none"
         d="m 4134.35,1450.39 h 91.168 v 173.59 h -91.168 z" /><path
         id="path50"
         style="fill:#f7eac3;fill-opacity:1;fill-rule:nonzero;stroke:none"
         d="m 5256.6,1528.97 h 164.77 v 181.09 H 5256.6 Z" /><path
         id="path52"
         style="fill:#473b31;fill-opacity:1;fill-rule:nonzero;stroke:none"
         d="m 5256.6,1682.36 h 164.77 v 27.6992 H 5256.6 Z" /><path
         id="path54"
         style="fill:#696158;fill-opacity:1;fill-rule:nonzero;stroke:none"
         d="m 5205.59,1682.36 h 51.0117 v 13.8516 H 5205.59 Z" /><path
         id="path56"
         style="fill:#696158;fill-opacity:1;fill-rule:nonzero;stroke:none"
         d="m 5205.59,1547.79 h 51.0117 v 13.8516 H 5205.59 Z" /><path
         id="path58"
         style="fill:#d95f34;fill-opacity:1;fill-rule:nonzero;stroke:none"
         d="m 5383.59,1589.49 c 3.27,0 5.88,-2.62 5.88,-5.86 0,-3.24 -2.61,-5.87 -5.88,-5.87 -3.24,0 -5.84,2.63 -5.84,5.87 0,3.24 2.6,5.86 5.84,5.86 z m -9.21,-10.86 c 0.07,-0.85 2.28,-5.41 8.12,-5.81 3.71,-0.25 11.88,3 11.82,11.68 -0.08,9.98 -11.76,13.51 -11.76,13.51 h -84.26 c 1.88,-31.18 28.4,-37.85 28.4,-37.85 l -26.66,-0.17 v -5.16 h 87.11 v 5.38 h -36.08 c 16.45,5.27 23.31,18.42 23.31,18.42" /><path
         id="path60"
         style="fill:#d95f34;fill-opacity:1;fill-rule:nonzero;stroke:none"
         d="m 5328.65,1620.37 c 3.89,-0.72 12.66,-1.01 15.96,-11.36 -0.14,-2.97 0.16,-4.81 -0.86,-7.05 1.41,2.7 4.8,9.9 5.59,16.71 0.45,4.01 -1.74,11.33 -5.53,11.33 -3.79,0 -14.86,-4 -12.01,3.38 3.86,6.82 11.79,15.29 12.95,24.07 0.56,5.89 -4.89,13.17 -12.95,12.4 0,0 15.09,-0.18 6.48,-18.15 -2.73,-4.32 -6.76,-10.06 -19.41,-19.83 -3.01,-3.16 -6.76,-6.48 -5.61,-9.49 2.03,-1.74 3.89,-2.01 15.39,-2.01" /><path
         id="path62"
         style="fill:#473b31;fill-opacity:1;fill-rule:nonzero;stroke:none"
         d="m 5319.92,1203.7 v 43.15 h -172.6 v -67.12 h 71.92 v -43.17 h 172.62 v 67.14 h -71.94" /><path
         id="path64"
         style="fill:#473b31;fill-opacity:1;fill-rule:nonzero;stroke:none"
         d="m 4439.59,1136.56 h 791.129 v 983.25 H 4439.59 Z" /><path
         id="path66"
         style="fill:#6a6158;fill-opacity:1;fill-rule:nonzero;stroke:none"
         d="m 4443.79,1608.4 h 789.84 v 18.9219 h -789.84 z" /><path
         id="path68"
         style="fill:#584d44;fill-opacity:1;fill-rule:nonzero;stroke:none"
         d="m 4443.79,1589.49 h 789.84 v 18.9102 h -789.84 z" /><path
         id="path70"
         style="fill:#f7eac3;fill-opacity:1;fill-rule:evenodd;stroke:none"
         d="m 4543.38,1933.63 h 70.7031 v 84.6914 H 4543.38 Z" /><path
         id="path72"
         style="fill:#f7eac3;fill-opacity:1;fill-rule:evenodd;stroke:none"
         d="m 4638.38,1933.63 h 70.6016 v 84.6914 H 4638.38 Z" /><path
         id="path74"
         style="fill:#696158;fill-opacity:1;fill-rule:evenodd;stroke:none"
         d="m 4708.98,1933.63 h -70.6 v 84.69 h 70.6 z m -94.9,0 h -70.7 v 84.69 h 70.7 z m -87.48,98.13 V 1926.2 h 199.22 v 105.56 H 4526.6" /><path
         id="path76"
         style="fill:#f7eac3;fill-opacity:1;fill-rule:evenodd;stroke:none"
         d="m 4543.38,1834.04 h 70.7031 v 84.6797 H 4543.38 Z" /><path
         id="path78"
         style="fill:#f7eac3;fill-opacity:1;fill-rule:evenodd;stroke:none"
         d="m 4638.38,1834.04 h 70.6016 v 84.6797 H 4638.38 Z" /><path
         id="path80"
         style="fill:#696158;fill-opacity:1;fill-rule:evenodd;stroke:none"
         d="m 4708.98,1834.04 h -70.6 v 84.68 h 70.6 z m -94.9,0 h -70.7 v 84.68 h 70.7 z m -87.48,92.16 v -99.62 h 199.22 v 99.62 H 4526.6" /><path
         id="path82"
         style="fill:#5d9389;fill-opacity:1;fill-rule:evenodd;stroke:none"
         d="m 4543.38,1734.47 h 70.7031 v 84.6719 H 4543.38 Z" /><path
         id="path84"
         style="fill:#5d9389;fill-opacity:1;fill-rule:evenodd;stroke:none"
         d="m 4638.38,1734.47 h 70.6016 v 84.6719 H 4638.38 Z" /><path
         id="path86"
         style="fill:#696158;fill-opacity:1;fill-rule:evenodd;stroke:none"
         d="m 4708.98,1734.47 h -70.6 v 84.67 h 70.6 z m -94.9,0 h -70.7 v 84.67 h 70.7 z m -87.48,92.11 v -105.54 h 199.22 v 105.54 H 4526.6" /><path
         id="path88"
         style="fill:#696158;fill-opacity:1;fill-rule:evenodd;stroke:none"
         d="m 4491.33,1700.08 h 257.988 v 20.3086 H 4491.33 Z" /><path
         id="path90"
         style="fill:#f7eac3;fill-opacity:1;fill-rule:evenodd;stroke:none"
         d="m 4944.45,1933.63 h 70.6914 v 84.6914 H 4944.45 Z" /><path
         id="path92"
         style="fill:#f7eac3;fill-opacity:1;fill-rule:evenodd;stroke:none"
         d="m 5039.39,1933.63 h 70.6289 v 84.6914 H 5039.39 Z" /><path
         id="path94"
         style="fill:#696158;fill-opacity:1;fill-rule:evenodd;stroke:none"
         d="m 5110.02,1933.63 h -70.63 v 84.69 h 70.63 z m -94.88,0 h -70.69 v 84.69 h 70.69 z m -87.46,98.13 V 1926.2 h 199.2 v 105.56 h -199.2" /><path
         id="path96"
         style="fill:#f7eac3;fill-opacity:1;fill-rule:evenodd;stroke:none"
         d="m 4944.45,1834.04 h 70.6914 v 84.6797 H 4944.45 Z" /><path
         id="path98"
         style="fill:#f7eac3;fill-opacity:1;fill-rule:evenodd;stroke:none"
         d="m 5039.39,1834.04 h 70.6289 v 84.6797 H 5039.39 Z" /><path
         id="path100"
         style="fill:#696158;fill-opacity:1;fill-rule:evenodd;stroke:none"
         d="m 5110.02,1834.04 h -70.63 v 84.68 h 70.63 z m -94.88,0 h -70.69 v 84.68 h 70.69 z m -87.46,92.16 v -99.62 h 199.2 v 99.62 h -199.2" /><path
         id="path102"
         style="fill:#5d9389;fill-opacity:1;fill-rule:evenodd;stroke:none"
         d="m 4944.45,1734.47 h 70.6914 v 84.6719 H 4944.45 Z" /><path
         id="path104"
         style="fill:#5d9389;fill-opacity:1;fill-rule:evenodd;stroke:none"
         d="m 5039.39,1734.47 h 70.6289 v 84.6719 H 5039.39 Z" /><path
         id="path106"
         style="fill:#696158;fill-opacity:1;fill-rule:evenodd;stroke:none"
         d="m 5110.02,1734.47 h -70.63 v 84.67 h 70.63 z m -94.88,0 h -70.69 v 84.67 h 70.69 z m -87.46,92.11 v -105.54 h 199.2 v 105.54 h -199.2" /><path
         id="path108"
         style="fill:#696158;fill-opacity:1;fill-rule:evenodd;stroke:none"
         d="m 4892.42,1700.08 h 257.93 v 20.3086 h -257.93 z" /><path
         id="path110"
         style="fill:#696158;fill-opacity:1;fill-rule:evenodd;stroke:none"
         d="m 4847.89,1442.05 h -263.18 v -249.71 h 500.86 v 249.71 h -237.68" /><path
         id="path112"
         style="fill:#5d9389;fill-opacity:1;fill-rule:evenodd;stroke:none"
         d="m 4801.68,1425.24 h -194.79 v -214.47 h 456.49 v 214.47 h -261.7" /><path
         id="path114"
         style="fill:#696158;fill-opacity:1;fill-rule:evenodd;stroke:none"
         d="m 4584.71,1442.05 v -250.66 l 23.69,21.08 v 211.25 h 453.49 l 23.68,18.33 h -500.86" /><path
         id="path116"
         style="fill:#3f342b;fill-opacity:1;fill-rule:nonzero;stroke:none"
         d="m 5113.85,1330.07 h -28.28 v 29.18 h 28.28 v -29.18 m -529.14,0 h -28.26 v 29.18 h 28.26 v -29.18" /><path
         id="path118"
         style="fill:#5d564e;fill-opacity:1;fill-rule:nonzero;stroke:none"
         d="m 5063.38,1330.07 h 22.1914 v 29.1797 H 5063.38 Z" /><path
         id="path120"
         style="fill:#52827c;fill-opacity:1;fill-rule:nonzero;stroke:none"
         d="M 5063.38,1330.07 H 4608.4 v 29.18 h 454.98 v -29.18" /><path
         id="path122"
         style="fill:#5d564e;fill-opacity:1;fill-rule:nonzero;stroke:none"
         d="m 4584.71,1330.07 h 23.6875 v 29.1797 H 4584.71 Z" /><path
         id="path124"
         style="fill:#9e4827;fill-opacity:1;fill-rule:nonzero;stroke:none"
         d="m 4556.45,1360.07 h 80.1523 v 128.539 H 4556.45 Z" /><path
         id="path126"
         style="fill:#d95f34;fill-opacity:1;fill-rule:nonzero;stroke:none"
         d="m 4556.45,1389.25 h 80.1523 v 112.711 H 4556.45 Z" /><path
         id="path128"
         style="fill:#dfd9ab;fill-opacity:1;fill-rule:nonzero;stroke:none"
         d="m 4635.96,1360.07 h 80.1484 v 128.539 H 4635.96 Z" /><path
         id="path130"
         style="fill:#f7eac3;fill-opacity:1;fill-rule:nonzero;stroke:none"
         d="m 4635.96,1389.25 h 80.1484 v 112.711 H 4635.96 Z" /><path
         id="path132"
         style="fill:#9e4827;fill-opacity:1;fill-rule:nonzero;stroke:none"
         d="m 4715.51,1360.07 h 80.168 v 128.539 h -80.168 z" /><path
         id="path134"
         style="fill:#d95f34;fill-opacity:1;fill-rule:nonzero;stroke:none"
         d="m 4715.51,1389.25 h 80.168 v 112.711 h -80.168 z" /><path
         id="path136"
         style="fill:#dfd9ab;fill-opacity:1;fill-rule:nonzero;stroke:none"
         d="m 4795.08,1360.07 h 80.1172 v 128.539 H 4795.08 Z" /><path
         id="path138"
         style="fill:#f7eac3;fill-opacity:1;fill-rule:nonzero;stroke:none"
         d="m 4795.08,1389.25 h 80.1172 v 112.711 H 4795.08 Z" /><path
         id="path140"
         style="fill:#9e4827;fill-opacity:1;fill-rule:nonzero;stroke:none"
         d="m 4874.57,1360.07 h 80.2188 v 128.539 H 4874.57 Z" /><path
         id="path142"
         style="fill:#d95f34;fill-opacity:1;fill-rule:nonzero;stroke:none"
         d="m 4874.57,1389.25 h 80.2188 v 112.711 H 4874.57 Z" /><path
         id="path144"
         style="fill:#dfd9ab;fill-opacity:1;fill-rule:nonzero;stroke:none"
         d="m 4954.12,1360.07 h 80.1992 v 128.539 H 4954.12 Z" /><path
         id="path146"
         style="fill:#f7eac3;fill-opacity:1;fill-rule:nonzero;stroke:none"
         d="m 4954.12,1389.25 h 80.1992 v 112.711 H 4954.12 Z" /><path
         id="path148"
         style="fill:#9e4827;fill-opacity:1;fill-rule:nonzero;stroke:none"
         d="m 5033.63,1360.07 h 80.2227 v 128.539 H 5033.63 Z" /><path
         id="path150"
         style="fill:#d95f34;fill-opacity:1;fill-rule:nonzero;stroke:none"
         d="m 5033.63,1389.25 h 80.2227 v 112.711 H 5033.63 Z" /><path
         id="path152"
         style="fill:#446b65;fill-opacity:1;fill-rule:nonzero;stroke:none"
         d="m 4753.96,1234.54 h 67.52 V 1210 h 21.98 v 24.54 h 67.52 v 19.7 h -157.02 v -19.7" /><path
         id="path154"
         style="fill:#446b65;fill-opacity:1;fill-rule:nonzero;stroke:none"
         d="m 4961.72,1210 h 14 v 104.391 h -14 z" /><path
         id="path156"
         style="fill:#446b65;fill-opacity:1;fill-rule:nonzero;stroke:none"
         d="m 4688.03,1210 h 13.9805 v 104.391 H 4688.03 Z" /><path
         id="path158"
         style="fill:#9e4827;fill-opacity:1;fill-rule:nonzero;stroke:none"
         d="m 4439.57,2118.46 h 791.148 v 33.9609 H 4439.57 Z" /><path
         id="path160"
         style="fill:#d95f34;fill-opacity:1;fill-rule:nonzero;stroke:none"
         d="m 5230.72,2152.42 h -791.15 l 61.58,104.48 h 668.01 l 61.56,-104.48" /><path
         id="path162"
         style="fill:#9e4827;fill-opacity:1;fill-rule:nonzero;stroke:none"
         d="m 4992.23,2193.97 h 86.8516 v 124.27 H 4992.23 Z" /><path
         id="path164"
         style="fill:#473b31;fill-opacity:1;fill-rule:nonzero;stroke:none"
         d="m 3014.85,1136.56 h 1038.19 v 913.023 H 3014.85 Z" /><path
         id="path166"
         style="fill:#584d44;fill-opacity:1;fill-rule:nonzero;stroke:none"
         d="m 3016.2,2047.72 h 1035.51 l -116,89.74 h -817.67 l -101.84,-89.74" /><path
         id="path168"
         style="fill:#446b65;fill-opacity:1;fill-rule:nonzero;stroke:none"
         d="m 3121.67,1136.56 h 837.418 v 336.66 H 3121.67 Z" /><path
         id="path170"
         style="fill:#334e4a;fill-opacity:1;fill-rule:nonzero;stroke:none"
         d="m 3459.21,1136.56 h 123.398 v 336.66 H 3459.21 Z" /><path
         id="path172"
         style="fill:#5d9389;fill-opacity:1;fill-rule:nonzero;stroke:none"
         d="m 3454.05,1136.56 h 15.0586 v 283.703 H 3454.05 Z" /><path
         id="path174"
         style="fill:#5d9389;fill-opacity:1;fill-rule:nonzero;stroke:none"
         d="m 3573.45,1136.56 h 12.8516 v 283.703 H 3573.45 Z" /><path
         id="path176"
         style="fill:#696158;fill-opacity:1;fill-rule:nonzero;stroke:none"
         d="m 3951.28,1136.56 h 12.8281 v 283.703 H 3951.28 Z" /><path
         id="path178"
         style="fill:#696158;fill-opacity:1;fill-rule:nonzero;stroke:none"
         d="m 3121.73,1136.56 h 12.8281 v 283.703 H 3121.73 Z" /><path
         id="path180"
         style="fill:#3f342b;fill-opacity:1;fill-rule:nonzero;stroke:none"
         d="m 3964.11,1320 h 49.2227 v 86.0703 H 3964.11 Z" /><path
         id="path182"
         style="fill:#3d5f5a;fill-opacity:1;fill-rule:nonzero;stroke:none"
         d="m 3586.3,1320 h 364.98 v 86.0703 H 3586.3 Z" /><path
         id="path184"
         style="fill:#2e4542;fill-opacity:1;fill-rule:nonzero;stroke:none"
         d="m 3469.11,1320 h 104.34 v 86.0703 h -104.34 z" /><path
         id="path186"
         style="fill:#3d5f5a;fill-opacity:1;fill-rule:nonzero;stroke:none"
         d="m 3134.56,1320 h 319.492 v 86.0703 H 3134.56 Z" /><path
         id="path188"
         style="fill:#3f342b;fill-opacity:1;fill-rule:nonzero;stroke:none"
         d="m 3054.95,1320 h 66.7227 v 86.0703 H 3054.95 Z" /><path
         id="path190"
         style="fill:#3d5f5a;fill-opacity:1;fill-rule:nonzero;stroke:none"
         d="m 3121.67,1320 h 0.059 v 86.0703 h -0.059 z" /><path
         id="path192"
         style="fill:#52827c;fill-opacity:1;fill-rule:nonzero;stroke:none"
         d="m 3454.05,1320 h 15.0586 v 86.0703 H 3454.05 Z" /><path
         id="path194"
         style="fill:#52827c;fill-opacity:1;fill-rule:nonzero;stroke:none"
         d="m 3573.45,1320 h 12.8516 v 86.0703 H 3573.45 Z" /><path
         id="path196"
         style="fill:#5d564e;fill-opacity:1;fill-rule:nonzero;stroke:none"
         d="m 3951.28,1320 h 12.8281 v 86.0703 H 3951.28 Z" /><path
         id="path198"
         style="fill:#5d564e;fill-opacity:1;fill-rule:nonzero;stroke:none"
         d="m 3121.73,1320 h 12.8281 v 86.0703 H 3121.73 Z" /><path
         id="path200"
         style="fill:#f7eac3;fill-opacity:1;fill-rule:nonzero;stroke:none"
         d="m 3138.54,1504.37 h 802.5 l 73.58,-98.3 h -959.67 l 83.59,98.3" /><path
         id="path202"
         style="fill:#d95f34;fill-opacity:1;fill-rule:nonzero;stroke:none"
         d="m 3116.04,1406.73 h -32.24 l 77.58,96.99 h 26.93 l -72.27,-96.99" /><path
         id="path204"
         style="fill:#d95f34;fill-opacity:1;fill-rule:nonzero;stroke:none"
         d="m 3188.17,1406.73 h -32.26 l 65.66,96.99 h 26.9 l -60.3,-96.99" /><path
         id="path206"
         style="fill:#d95f34;fill-opacity:1;fill-rule:nonzero;stroke:none"
         d="m 3260.28,1406.73 h -32.26 l 53.71,96.99 h 26.91 l -48.36,-96.99" /><path
         id="path208"
         style="fill:#d95f34;fill-opacity:1;fill-rule:nonzero;stroke:none"
         d="m 3332.39,1406.73 h -32.26 l 41.77,96.99 h 26.9 l -36.41,-96.99" /><path
         id="path210"
         style="fill:#d95f34;fill-opacity:1;fill-rule:nonzero;stroke:none"
         d="m 3404.54,1406.73 h -32.26 l 29.78,96.99 h 26.93 l -24.45,-96.99" /><path
         id="path212"
         style="fill:#d95f34;fill-opacity:1;fill-rule:nonzero;stroke:none"
         d="m 3476.67,1406.73 h -32.27 l 17.86,96.99 h 26.89 l -12.48,-96.99" /><path
         id="path214"
         style="fill:#d95f34;fill-opacity:1;fill-rule:nonzero;stroke:none"
         d="m 3548.78,1406.73 h -32.27 l 5.92,96.99 h 26.92 l -0.57,-96.99" /><path
         id="path216"
         style="fill:#d95f34;fill-opacity:1;fill-rule:nonzero;stroke:none"
         d="m 3620.91,1406.73 h -32.23 l -6.07,96.99 h 26.91 l 11.39,-96.99" /><path
         id="path218"
         style="fill:#d95f34;fill-opacity:1;fill-rule:nonzero;stroke:none"
         d="m 3693.04,1406.73 h -32.27 l -17.99,96.99 h 26.92 l 23.34,-96.99" /><path
         id="path220"
         style="fill:#d95f34;fill-opacity:1;fill-rule:nonzero;stroke:none"
         d="m 3765.15,1406.73 h -32.23 l -29.94,96.99 h 26.87 l 35.3,-96.99" /><path
         id="path222"
         style="fill:#d95f34;fill-opacity:1;fill-rule:nonzero;stroke:none"
         d="m 3837.28,1406.73 h -32.25 l -41.9,96.99 h 26.92 l 47.23,-96.99" /><path
         id="path224"
         style="fill:#d95f34;fill-opacity:1;fill-rule:nonzero;stroke:none"
         d="m 3909.44,1406.73 h -32.3 l -53.87,96.99 h 26.94 l 59.23,-96.99" /><path
         id="path226"
         style="fill:#d95f34;fill-opacity:1;fill-rule:nonzero;stroke:none"
         d="m 3981.55,1406.73 h -32.26 l -65.82,96.99 h 26.91 l 71.17,-96.99" /><path
         id="path228"
         style="fill:#9e4827;fill-opacity:1;fill-rule:nonzero;stroke:none"
         d="m 3053.31,1385.38 h 961.312 v 21.9727 H 3053.31 Z" /><path
         id="path230"
         style="fill:#473b31;fill-opacity:1;fill-rule:nonzero;stroke:none"
         d="m 3218.45,2102.67 h 96.1719 v 145.168 H 3218.45 Z" /><path
         id="path232"
         style="fill:#5d9389;fill-opacity:1;fill-rule:nonzero;stroke:none"
         d="m 3309.89,1823.54 c -0.95,18.61 -7.48,35.72 -17.97,49.32 l -46.66,-49.32 h 64.63" /><path
         id="path234"
         style="fill:#5d9389;fill-opacity:1;fill-rule:nonzero;stroke:none"
         d="m 3266.14,1894.96 0.37,-0.1 c -1.79,0.98 -3.67,1.9 -5.52,2.75 l -1.12,0.5 c -2.22,0.95 -4.47,1.85 -6.79,2.6 l -0.14,0.04 c -2.27,0.75 -4.57,1.35 -6.91,1.89 l -1.24,0.26 c -2.32,0.5 -4.64,0.89 -7.05,1.16 l -1.34,0.14 -2.17,0.19 v -76.85 l 50.51,53.47 c -5.57,5.51 -11.8,10.24 -18.6,13.95" /><path
         id="path236"
         style="fill:#5d9389;fill-opacity:1;fill-rule:nonzero;stroke:none"
         d="m 3213.94,1823.54 -43.17,45.6 -4.26,4.55 c -10.89,-13.74 -17.63,-31.13 -18.63,-50.15 h 66.06" /><path
         id="path238"
         style="fill:#5d9389;fill-opacity:1;fill-rule:nonzero;stroke:none"
         d="m 3234.23,1666.33 h 75.88 c 0,0 0,34.6 0,70.88 h -75.88 v -70.88" /><path
         id="path240"
         style="fill:#5d9389;fill-opacity:1;fill-rule:nonzero;stroke:none"
         d="m 3234.23,1812.74 v -64.72 h 75.88 c 0,27.11 0,53.24 0,64.72 h -75.88" /><path
         id="path242"
         style="fill:#5d9389;fill-opacity:1;fill-rule:nonzero;stroke:none"
         d="m 3177.9,1877.4 45.57,-48.24 v 75.14 c -19.16,-1.33 -36.43,-9.67 -49.69,-22.58 l 4.12,-4.32" /><path
         id="path244"
         style="fill:#5d9389;fill-opacity:1;fill-rule:nonzero;stroke:none"
         d="m 3147.67,1737.21 v -70.88 h 75.8 v 70.88 h -75.8" /><path
         id="path246"
         style="fill:#5d9389;fill-opacity:1;fill-rule:nonzero;stroke:none"
         d="m 3147.67,1812.74 v -64.72 h 75.8 v 64.72 h -75.8" /><path
         id="path248"
         style="fill:#6a6158;fill-opacity:1;fill-rule:nonzero;stroke:none"
         d="m 3310.11,1748.02 h -75.88 v 64.72 h 75.88 c 0,-11.48 0,-37.61 0,-64.72 z m 0,-81.69 h -75.88 v 70.88 h 75.88 c 0,-36.28 0,-70.88 0,-70.88 z m -86.64,234.36 v -71.53 l -45.57,48.24 -3.96,4.2 c 13.14,12.6 30.39,20.7 49.53,22.03 z m 0,-152.67 h -74.94 v 64.72 h 74.94 z m 0,-81.69 h -75.8 v 0.72 l 0.86,0.72 v 69.44 h 74.94 z m -68.64,187.48 0.34,0.78 c 0.86,2.02 1.79,3.96 2.85,5.93 l 0.56,1.14 c 2.35,4.22 5.02,8.22 7.97,11.95 l 4.22,-4.47 43.17,-45.6 h -65.38 c 0.2,10.71 2.41,20.92 6.27,30.27 z m 129.77,27.05 -50.37,-53.32 v 76.09 c 19.51,-1.33 37.15,-9.68 50.37,-22.77 z m 25.29,-57.32 h -64.63 l 46.66,49.32 c 10.49,-13.6 17.02,-30.71 17.97,-49.32 z m -15.88,66.13 -0.07,0.07 c -6.29,6.1 -13.42,11.33 -21.25,15.47 l -0.16,0.1 c -2.54,1.37 -5.18,2.59 -7.83,3.71 l -1.04,0.41 c -2.42,0.96 -4.86,1.88 -7.38,2.64 l -2.34,0.59 c -2.13,0.59 -4.28,1.21 -6.45,1.63 -1.43,0.3 -2.91,0.46 -4.37,0.65 -1.61,0.27 -3.15,0.58 -4.77,0.72 -3.11,0.34 -6.25,0.47 -9.43,0.47 -51.72,0 -93.6,-41.85 -93.6,-93.53 l 0.08,-0.62 h -0.08 v -165.5 h 187.11 c 0,0 0,161.06 0,166.12 0,26.34 -10.94,50.06 -28.42,67.07" /><path
         id="path250"
         style="fill:#5d9389;fill-opacity:1;fill-rule:nonzero;stroke:none"
         d="m 3614.97,1823.54 c -0.96,18.61 -7.48,35.72 -17.95,49.32 l -46.66,-49.32 h 64.61" /><path
         id="path252"
         style="fill:#5d9389;fill-opacity:1;fill-rule:nonzero;stroke:none"
         d="m 3571.22,1894.96 0.37,-0.1 c -1.8,0.98 -3.67,1.9 -5.53,2.75 l -1.13,0.5 c -2.21,0.95 -4.45,1.85 -6.78,2.6 l -0.13,0.04 c -2.27,0.75 -4.55,1.35 -6.92,1.89 l -1.23,0.26 c -2.32,0.5 -4.65,0.89 -7.05,1.16 l -1.35,0.14 -2.16,0.19 v -76.85 l 50.5,53.47 c -5.54,5.51 -11.77,10.24 -18.59,13.95" /><path
         id="path254"
         style="fill:#5d9389;fill-opacity:1;fill-rule:nonzero;stroke:none"
         d="m 3519.01,1823.54 -43.14,45.6 -4.28,4.55 c -10.88,-13.74 -17.63,-31.13 -18.63,-50.15 h 66.05" /><path
         id="path256"
         style="fill:#5d9389;fill-opacity:1;fill-rule:nonzero;stroke:none"
         d="m 3539.31,1666.33 h 75.9 c 0,0 0,34.6 0,70.88 h -75.9 v -70.88" /><path
         id="path258"
         style="fill:#5d9389;fill-opacity:1;fill-rule:nonzero;stroke:none"
         d="m 3539.31,1812.74 v -64.72 h 75.9 c 0,27.11 0,53.24 0,64.72 h -75.9" /><path
         id="path260"
         style="fill:#5d9389;fill-opacity:1;fill-rule:nonzero;stroke:none"
         d="m 3482.98,1877.4 45.56,-48.24 v 75.14 c -19.16,-1.33 -36.42,-9.67 -49.68,-22.58 l 4.12,-4.32" /><path
         id="path262"
         style="fill:#5d9389;fill-opacity:1;fill-rule:nonzero;stroke:none"
         d="m 3452.74,1737.21 v -70.88 h 75.8 v 70.88 h -75.8" /><path
         id="path264"
         style="fill:#5d9389;fill-opacity:1;fill-rule:nonzero;stroke:none"
         d="m 3452.74,1812.74 v -64.72 h 75.8 v 64.72 h -75.8" /><path
         id="path266"
         style="fill:#6a6158;fill-opacity:1;fill-rule:nonzero;stroke:none"
         d="m 3615.21,1748.02 h -75.9 v 64.72 h 75.9 c 0,-11.48 0,-37.61 0,-64.72 z m 0,-81.69 h -75.9 v 70.88 h 75.9 c 0,-36.28 0,-70.88 0,-70.88 z m -86.67,234.36 v -71.53 l -45.56,48.24 -3.97,4.2 c 13.15,12.6 30.41,20.7 49.53,22.03 z m 0,-152.67 h -74.94 v 64.72 h 74.94 z m 0,-81.69 h -75.8 v 0.72 l 0.86,0.72 v 69.44 h 74.94 z m -68.63,187.48 0.33,0.78 c 0.86,2.02 1.82,3.96 2.86,5.93 l 0.56,1.14 c 2.35,4.22 5.02,8.22 7.97,11.95 l 4.24,-4.47 43.14,-45.6 h -65.37 c 0.2,10.71 2.4,20.92 6.27,30.27 z m 129.77,27.05 -50.37,-53.32 v 76.09 c 19.53,-1.33 37.15,-9.68 50.37,-22.77 z m 25.29,-57.32 h -64.61 l 46.66,49.32 c 10.47,-13.6 16.99,-30.71 17.95,-49.32 z m -15.86,66.13 -0.1,0.07 c -6.27,6.1 -13.41,11.33 -21.25,15.47 l -0.15,0.1 c -2.54,1.37 -5.18,2.59 -7.83,3.71 l -1.04,0.41 c -2.42,0.96 -4.86,1.88 -7.38,2.64 l -2.35,0.59 c -2.11,0.59 -4.25,1.21 -6.44,1.63 -1.43,0.3 -2.91,0.46 -4.38,0.65 -1.58,0.27 -3.14,0.58 -4.76,0.72 -3.11,0.34 -6.25,0.47 -9.42,0.47 -51.72,0 -93.61,-41.85 -93.61,-93.53 l 0.06,-0.62 h -0.06 v -165.5 h 187.11 c 0,0 0,161.06 0,166.12 0,26.34 -10.94,50.06 -28.4,67.07" /><path
         id="path268"
         style="fill:#5d9389;fill-opacity:1;fill-rule:nonzero;stroke:none"
         d="m 3920.05,1823.54 c -0.96,18.61 -7.48,35.72 -17.97,49.32 l -46.66,-49.32 h 64.63" /><path
         id="path270"
         style="fill:#5d9389;fill-opacity:1;fill-rule:nonzero;stroke:none"
         d="m 3876.32,1894.96 0.35,-0.1 c -1.8,0.98 -3.67,1.9 -5.55,2.75 l -1.09,0.5 c -2.23,0.95 -4.47,1.85 -6.82,2.6 l -0.09,0.04 c -2.29,0.75 -4.59,1.35 -6.92,1.89 l -1.25,0.26 c -2.3,0.5 -4.63,0.89 -7.03,1.16 l -1.37,0.14 -2.17,0.19 v -76.85 l 50.53,53.47 c -5.56,5.51 -11.79,10.24 -18.59,13.95" /><path
         id="path272"
         style="fill:#5d9389;fill-opacity:1;fill-rule:nonzero;stroke:none"
         d="m 3824.11,1823.54 -43.16,45.6 -4.28,4.55 c -10.88,-13.74 -17.64,-31.13 -18.61,-50.15 h 66.05" /><path
         id="path274"
         style="fill:#5d9389;fill-opacity:1;fill-rule:nonzero;stroke:none"
         d="m 3844.38,1666.33 h 75.9 c 0,0 0,34.6 0,70.88 h -75.9 v -70.88" /><path
         id="path276"
         style="fill:#5d9389;fill-opacity:1;fill-rule:nonzero;stroke:none"
         d="m 3844.38,1812.74 v -64.72 h 75.9 c 0,27.11 0,53.24 0,64.72 h -75.9" /><path
         id="path278"
         style="fill:#5d9389;fill-opacity:1;fill-rule:nonzero;stroke:none"
         d="m 3788.06,1877.4 45.56,-48.24 v 75.14 c -19.16,-1.33 -36.42,-9.67 -49.66,-22.58 l 4.1,-4.32" /><path
         id="path280"
         style="fill:#5d9389;fill-opacity:1;fill-rule:nonzero;stroke:none"
         d="m 3757.82,1737.21 v -70.88 h 75.8 v 70.88 h -75.8" /><path
         id="path282"
         style="fill:#5d9389;fill-opacity:1;fill-rule:nonzero;stroke:none"
         d="m 3757.82,1812.74 v -64.72 h 75.8 v 64.72 h -75.8" /><path
         id="path284"
         style="fill:#6a6158;fill-opacity:1;fill-rule:nonzero;stroke:none"
         d="m 3920.28,1748.02 h -75.9 v 64.72 h 75.9 c 0,-11.48 0,-37.61 0,-64.72 z m 0,-81.69 h -75.9 v 70.88 h 75.9 c 0,-36.28 0,-70.88 0,-70.88 z m -86.66,234.36 v -71.53 l -45.56,48.24 -3.97,4.2 c 13.15,12.6 30.41,20.7 49.53,22.03 z m 0,-152.67 h -74.94 v 64.72 h 74.94 z m 0,-81.69 h -75.8 v 0.72 l 0.86,0.72 v 69.44 h 74.94 z m -68.61,187.48 0.33,0.78 c 0.86,2.02 1.8,3.96 2.83,5.93 l 0.59,1.14 c 2.32,4.22 5,8.22 7.95,11.95 l 4.24,-4.47 43.16,-45.6 h -65.37 c 0.18,10.71 2.4,20.92 6.27,30.27 z m 129.77,27.05 -50.4,-53.32 v 76.09 c 19.54,-1.33 37.15,-9.68 50.4,-22.77 z m 25.27,-57.32 h -64.63 l 46.66,49.32 c 10.49,-13.6 17.01,-30.71 17.97,-49.32 z m -15.86,66.13 -0.1,0.07 c -6.27,6.1 -13.42,11.33 -21.23,15.47 l -0.17,0.1 c -2.54,1.37 -5.16,2.59 -7.84,3.71 l -1.03,0.41 c -2.4,0.96 -4.86,1.88 -7.38,2.64 l -2.35,0.59 c -2.11,0.59 -4.26,1.21 -6.44,1.63 -1.43,0.3 -2.89,0.46 -4.38,0.65 -1.58,0.27 -3.14,0.58 -4.76,0.72 -3.11,0.34 -6.25,0.47 -9.42,0.47 -51.72,0 -93.61,-41.85 -93.61,-93.53 l 0.06,-0.62 h -0.06 v -165.5 h 187.11 c 0,0 0,161.06 0,166.12 0,26.34 -10.94,50.06 -28.4,67.07" /><path
         id="path286"
         style="fill:#6a6158;fill-opacity:1;fill-rule:nonzero;stroke:none"
         d="m 3019.03,1586.01 h 1029.85 v 17.0703 H 3019.03 Z" /><path
         id="path288"
         style="fill:#584d44;fill-opacity:1;fill-rule:nonzero;stroke:none"
         d="m 3019.03,1568.94 h 1029.85 v 17.0703 H 3019.03 Z" /><path
         id="path290"
         style="fill:#f7eac3;fill-opacity:1;fill-rule:nonzero;stroke:none"
         d="m 3249.96,1146.07 h -55.02 c 0,0 -1.21,26.16 -6.5,45.75 -6.84,25.34 -16.98,45.19 -22.54,46.4 l -0.1,0.35 -0.82,-0.36 h -0.1 v -0.03 l -3.57,-1.56 28.3,-96.06 v -62.19 h 3.42 v 48.37 l 2.07,1.48 v -39.09 h 2.38 v 40.63 c 8.73,5.22 25.82,11.81 45.04,-0.08 v -40.55 h 2.38 v 38.98 l 1.56,-1.14 v -48.6 h 3.5 v 67.7" /><path
         id="path292"
         style="fill:#f7eac3;fill-opacity:1;fill-rule:nonzero;stroke:none"
         d="m 3349.06,1146.07 h 55 c 0,0 1.23,26.16 6.53,45.75 6.83,25.34 16.97,45.19 22.52,46.4 l 0.11,0.35 0.82,-0.36 h 0.1 v -0.03 l 3.57,-1.56 -28.3,-96.06 v -62.19 H 3406 v 48.37 l -2.09,1.48 v -39.09 h -2.39 v 40.63 c -8.71,5.22 -25.8,11.81 -45.02,-0.08 v -40.55 h -2.38 v 38.98 l -1.58,-1.14 v -48.6 h -3.48 v 67.7" /><path
         id="path294"
         style="fill:#473b31;fill-opacity:1;fill-rule:nonzero;stroke:none"
         d="m 3336.52,1083.28 c 0,-2.71 -1.03,-4.91 -2.3,-4.91 h -73.97 c -1.29,0 -2.32,2.2 -2.32,4.91 0,2.73 1.03,4.91 2.32,4.91 h 73.97 c 1.27,0 2.3,-2.18 2.3,-4.91" /><path
         id="path296"
         style="fill:#473b31;fill-opacity:1;fill-rule:nonzero;stroke:none"
         d="m 3289.86,1078.37 h 14.75 v 112.98 h -14.75 z" /><path
         id="path298"
         style="fill:#f7eac3;fill-opacity:1;fill-rule:nonzero;stroke:none"
         d="m 3380.74,1196.27 c 0,-2.73 -2.2,-4.92 -4.92,-4.92 h -157.17 c -2.73,0 -4.92,2.19 -4.92,4.92 0,2.7 2.19,4.9 4.92,4.9 h 157.17 c 2.72,0 4.92,-2.2 4.92,-4.9" /><path
         id="path300"
         style="fill:#f7eac3;fill-opacity:1;fill-rule:nonzero;stroke:none"
         d="m 3727.89,1146.07 h -55 c 0,0 -1.23,26.16 -6.52,45.75 -6.84,25.34 -16.98,45.19 -22.52,46.4 l -0.12,0.35 -0.82,-0.36 h -0.1 v -0.03 l -3.57,-1.56 28.3,-96.06 v -62.19 h 3.42 v 48.37 l 2.09,1.48 v -39.09 h 2.38 v 40.63 c 8.71,5.22 25.8,11.81 45.02,-0.08 v -40.55 h 2.38 v 38.98 l 1.58,-1.14 v -48.6 h 3.48 v 67.7" /><path
         id="path302"
         style="fill:#f7eac3;fill-opacity:1;fill-rule:nonzero;stroke:none"
         d="m 3826.99,1146.07 h 55 c 0,0 1.23,26.16 6.53,45.75 6.83,25.34 16.97,45.19 22.53,46.4 l 0.1,0.35 0.82,-0.36 h 0.1 v -0.03 l 3.57,-1.56 -28.3,-96.06 v -62.19 h -3.41 v 48.37 l -2.07,1.48 v -39.09 h -2.39 v 40.63 c -8.73,5.22 -25.82,11.81 -45.04,-0.08 v -40.55 h -2.38 v 38.98 l -1.56,-1.14 v -48.6 h -3.5 v 67.7" /><path
         id="path304"
         style="fill:#473b31;fill-opacity:1;fill-rule:nonzero;stroke:none"
         d="m 3814.45,1083.28 c 0,-2.71 -1.01,-4.91 -2.3,-4.91 h -73.97 c -1.27,0 -2.3,2.2 -2.3,4.91 0,2.73 1.03,4.91 2.3,4.91 h 73.97 c 1.29,0 2.3,-2.18 2.3,-4.91" /><path
         id="path306"
         style="fill:#473b31;fill-opacity:1;fill-rule:nonzero;stroke:none"
         d="m 3767.81,1078.37 h 14.7305 v 112.98 H 3767.81 Z" /><path
         id="path308"
         style="fill:#f7eac3;fill-opacity:1;fill-rule:nonzero;stroke:none"
         d="m 3858.69,1196.27 c 0,-2.73 -2.23,-4.92 -4.92,-4.92 h -157.19 c -2.73,0 -4.92,2.19 -4.92,4.92 0,2.7 2.19,4.9 4.92,4.9 h 157.19 c 2.69,0 4.92,-2.2 4.92,-4.9" /><path
         id="path310"
         style="fill:#473b31;fill-opacity:1;fill-rule:nonzero;stroke:none"
         d="m 1866.49,1136.13 h 935.684 v 877.68 H 1866.49 Z" /><path
         id="path312"
         style="fill:#473b31;fill-opacity:1;fill-rule:nonzero;stroke:none"
         d="m 2536.07,2101.33 h 86.8203 v 99.0664 H 2536.07 Z" /><path
         id="path314"
         style="fill:#584d44;fill-opacity:1;fill-rule:nonzero;stroke:none"
         d="m 1866.97,2014.71 h 934.7 l -104.69,102.38 h -738.06 l -91.95,-102.38" /><path
         id="path316"
         style="fill:#d95f34;fill-opacity:1;fill-rule:nonzero;stroke:none"
         d="M 2582.03,2094.54 2553.97,2063 h 53.6 l -25.54,31.54" /><path
         id="path318"
         style="fill:#d95f34;fill-opacity:1;fill-rule:nonzero;stroke:none"
         d="m 2339.42,2094.54 -28.1,-31.54 h 53.67 l -25.57,31.54" /><path
         id="path320"
         style="fill:#d95f34;fill-opacity:1;fill-rule:nonzero;stroke:none"
         d="M 2101.94,2094.54 2073.83,2063 h 53.64 l -25.53,31.54" /><path
         id="path322"
         style="fill:#5d9389;fill-opacity:1;fill-rule:nonzero;stroke:none"
         d="m 1994.46,1605.9 h 108.699 v 284.781 H 1994.46 Z" /><path
         id="path324"
         style="fill:#473b31;fill-opacity:1;fill-rule:nonzero;stroke:none"
         d="m 2046.49,1571.64 h 8.1914 v 379.719 h -8.1914 z" /><path
         id="path326"
         style="fill:#473b31;fill-opacity:1;fill-rule:nonzero;stroke:none"
         d="m 1985.29,1759.96 h 134.633 v 4.6484 H 1985.29 Z" /><path
         id="path328"
         style="fill:#473b31;fill-opacity:1;fill-rule:nonzero;stroke:none"
         d="m 1985.29,1675.93 h 134.633 v 4.6602 H 1985.29 Z" /><path
         id="path330"
         style="fill:#f7eac3;fill-opacity:1;fill-rule:nonzero;stroke:none"
         d="m 1963.89,1839.34 h 171.4 c 0,0 10.11,92.32 -80.66,103.86 0,0 -80.66,-3.85 -90.74,-103.86" /><path
         id="path332"
         style="fill:#d95f34;fill-opacity:1;fill-rule:nonzero;stroke:none"
         d="m 2054.63,1943.2 c 0,0 -58.11,-1.13 -62.2,-103.86 H 2021 c 0,0 -2.07,85.03 33.63,103.86" /><path
         id="path334"
         style="fill:#d95f34;fill-opacity:1;fill-rule:nonzero;stroke:none"
         d="m 2050.58,1943.2 c 0,0 47.09,-1.13 49.96,-103.86 h -26.25 c 0,0 1.48,85.03 -23.71,103.86" /><path
         id="path336"
         style="fill:#5d9389;fill-opacity:1;fill-rule:nonzero;stroke:none"
         d="m 2282.16,1605.9 h 108.68 v 284.781 h -108.68 z" /><path
         id="path338"
         style="fill:#473b31;fill-opacity:1;fill-rule:nonzero;stroke:none"
         d="m 2334.14,1571.64 h 8.1406 v 379.719 h -8.1406 z" /><path
         id="path340"
         style="fill:#473b31;fill-opacity:1;fill-rule:nonzero;stroke:none"
         d="m 2272.95,1759.96 h 134.609 v 4.6484 H 2272.95 Z" /><path
         id="path342"
         style="fill:#473b31;fill-opacity:1;fill-rule:nonzero;stroke:none"
         d="m 2272.95,1675.93 h 134.609 v 4.6602 H 2272.95 Z" /><path
         id="path344"
         style="fill:#f7eac3;fill-opacity:1;fill-rule:nonzero;stroke:none"
         d="m 2248.44,1839.34 h 171.43 c 0,0 10.1,92.32 -80.65,103.86 0,0 -80.69,-3.85 -90.78,-103.86" /><path
         id="path346"
         style="fill:#d95f34;fill-opacity:1;fill-rule:nonzero;stroke:none"
         d="m 2341.27,1943.2 c 0,0 -58.13,-1.13 -62.22,-103.86 h 28.55 c 0,0 -2.1,85.03 33.67,103.86" /><path
         id="path348"
         style="fill:#d95f34;fill-opacity:1;fill-rule:nonzero;stroke:none"
         d="m 2337.2,1943.2 c 0,0 47.09,-1.13 49.99,-103.86 h -26.26 c 0,0 1.45,85.03 -23.73,103.86" /><path
         id="path350"
         style="fill:#5d9389;fill-opacity:1;fill-rule:nonzero;stroke:none"
         d="m 2565.09,1605.9 h 108.691 v 284.781 H 2565.09 Z" /><path
         id="path352"
         style="fill:#473b31;fill-opacity:1;fill-rule:nonzero;stroke:none"
         d="m 2615.66,1571.64 h 8.1406 v 379.719 h -8.1406 z" /><path
         id="path354"
         style="fill:#473b31;fill-opacity:1;fill-rule:nonzero;stroke:none"
         d="m 2554.43,1759.96 h 134.641 v 4.6484 H 2554.43 Z" /><path
         id="path356"
         style="fill:#473b31;fill-opacity:1;fill-rule:nonzero;stroke:none"
         d="m 2554.43,1675.93 h 134.641 v 4.6602 H 2554.43 Z" /><path
         id="path358"
         style="fill:#f7eac3;fill-opacity:1;fill-rule:nonzero;stroke:none"
         d="m 2533.02,1839.34 h 171.4 c 0,0 10.08,92.32 -80.62,103.86 0,0 -80.7,-3.85 -90.78,-103.86" /><path
         id="path360"
         style="fill:#d95f34;fill-opacity:1;fill-rule:nonzero;stroke:none"
         d="m 2625.8,1943.2 c 0,0 -58.1,-1.13 -62.16,-103.86 h 28.54 c 0,0 -2.09,85.03 33.62,103.86" /><path
         id="path362"
         style="fill:#d95f34;fill-opacity:1;fill-rule:nonzero;stroke:none"
         d="m 2621.78,1943.2 c 0,0 47.08,-1.13 49.96,-103.86 h -26.28 c 0,0 1.47,85.03 -23.68,103.86" /><path
         id="path364"
         style="fill:#f7eac3;fill-opacity:1;fill-rule:nonzero;stroke:none"
         d="m 2334.33,1393.37 h -310.72 v -257.24 h 621.43 v 257.24 h -310.71" /><path
         id="path366"
         style="fill:#538d84;fill-opacity:1;fill-rule:nonzero;stroke:none"
         d="m 2043.44,1216.23 h 277.641 v 162.008 H 2043.44 Z" /><path
         id="path368"
         style="fill:#538d84;fill-opacity:1;fill-rule:nonzero;stroke:none"
         d="m 2334.33,1216.23 h 284.297 v 162.008 H 2334.33 Z" /><path
         id="path370"
         style="fill:#3f342b;fill-opacity:1;fill-rule:nonzero;stroke:none"
         d="m 2645.04,1289.17 h 1.6328 v 55 h -1.6328 z" /><path
         id="path372"
         style="fill:#ded1ad;fill-opacity:1;fill-rule:nonzero;stroke:none"
         d="m 2618.63,1289.17 h 26.4102 v 55 H 2618.63 Z" /><path
         id="path374"
         style="fill:#3f342b;fill-opacity:1;fill-rule:nonzero;stroke:none"
         d="m 2023.34,1289.17 h 0.2695 v 55 h -0.2695 z" /><path
         id="path376"
         style="fill:#ded1ad;fill-opacity:1;fill-rule:nonzero;stroke:none"
         d="m 2334.33,1289.17 h -13.25 v 55 h 13.25 v -55 m -290.89,0 h -19.83 v 55 h 19.83 v -55" /><path
         id="path378"
         style="fill:#4a7d75;fill-opacity:1;fill-rule:nonzero;stroke:none"
         d="m 2043.44,1289.17 h 277.641 v 55 H 2043.44 Z" /><path
         id="path380"
         style="fill:#4a7d75;fill-opacity:1;fill-rule:nonzero;stroke:none"
         d="m 2334.33,1289.17 h 284.297 v 55 H 2334.33 Z" /><path
         id="path382"
         style="fill:#9e4827;fill-opacity:1;fill-rule:nonzero;stroke:none"
         d="m 2010.77,1338.54 h 93.0391 v 149.211 H 2010.77 Z" /><path
         id="path384"
         style="fill:#d95f34;fill-opacity:1;fill-rule:nonzero;stroke:none"
         d="m 2010.77,1372.41 h 93.0391 v 130.84 H 2010.77 Z" /><path
         id="path386"
         style="fill:#dfd9ab;fill-opacity:1;fill-rule:nonzero;stroke:none"
         d="m 2103.07,1338.54 h 93.0781 v 149.211 H 2103.07 Z" /><path
         id="path388"
         style="fill:#f7eac3;fill-opacity:1;fill-rule:nonzero;stroke:none"
         d="m 2103.07,1372.41 h 93.0781 v 130.84 H 2103.07 Z" /><path
         id="path390"
         style="fill:#9e4827;fill-opacity:1;fill-rule:nonzero;stroke:none"
         d="m 2195.42,1338.54 h 93.0664 v 149.211 H 2195.42 Z" /><path
         id="path392"
         style="fill:#d95f34;fill-opacity:1;fill-rule:nonzero;stroke:none"
         d="m 2195.42,1372.41 h 93.0664 v 130.84 H 2195.42 Z" /><path
         id="path394"
         style="fill:#dfd9ab;fill-opacity:1;fill-rule:nonzero;stroke:none"
         d="m 2287.8,1338.54 h 93.0195 v 149.211 H 2287.8 Z" /><path
         id="path396"
         style="fill:#f7eac3;fill-opacity:1;fill-rule:nonzero;stroke:none"
         d="m 2287.8,1372.41 h 93.0195 v 130.84 H 2287.8 Z" /><path
         id="path398"
         style="fill:#9e4827;fill-opacity:1;fill-rule:nonzero;stroke:none"
         d="m 2380.1,1338.54 h 93.0977 v 149.211 H 2380.1 Z" /><path
         id="path400"
         style="fill:#d95f34;fill-opacity:1;fill-rule:nonzero;stroke:none"
         d="m 2380.1,1372.41 h 93.0977 v 130.84 H 2380.1 Z" /><path
         id="path402"
         style="fill:#dfd9ab;fill-opacity:1;fill-rule:nonzero;stroke:none"
         d="m 2472.44,1338.54 h 93.0977 v 149.211 H 2472.44 Z" /><path
         id="path404"
         style="fill:#f7eac3;fill-opacity:1;fill-rule:nonzero;stroke:none"
         d="m 2472.44,1372.41 h 93.0977 v 130.84 H 2472.44 Z" /><path
         id="path406"
         style="fill:#9e4827;fill-opacity:1;fill-rule:nonzero;stroke:none"
         d="m 2564.75,1338.54 h 93.1211 v 149.211 H 2564.75 Z" /><path
         id="path408"
         style="fill:#d95f34;fill-opacity:1;fill-rule:nonzero;stroke:none"
         d="m 2564.75,1372.41 h 93.1211 v 130.84 H 2564.75 Z" /><path
         id="path410"
         style="fill:#584d44;fill-opacity:1;fill-rule:nonzero;stroke:none"
         d="m 68.4688,1080.06 h 1652.72 v 62.0625 H 68.4688 Z" /><path
         id="path412"
         style="fill:#696158;fill-opacity:1;fill-rule:nonzero;stroke:none"
         d="m 489.062,1483.91 h 4.23047 v 82.5195 H 489.062 Z" /><path
         id="path414"
         style="fill:#f7eac3;fill-opacity:1;fill-rule:nonzero;stroke:none"
         d="m 523.75,1453.03 c 0,4.96 -1.133,9.69 -3.125,13.92 -5.215,11.01 -16.445,18.62 -29.453,18.62 -12.981,0 -24.207,-7.61 -29.434,-18.62 -2.004,-4.23 -3.125,-8.96 -3.125,-13.92 0,-17.99 14.578,-32.57 32.559,-32.57 18,0 32.578,14.58 32.578,32.57" /><path
         id="path416"
         style="fill:#696158;fill-opacity:1;fill-rule:nonzero;stroke:none"
         d="m 520.625,1466.95 c -5.215,11.01 -16.445,18.62 -29.453,18.62 -12.981,0 -24.207,-7.61 -29.434,-18.62 h 58.887" /><path
         id="path418"
         style="fill:#584d44;fill-opacity:1;fill-rule:nonzero;stroke:none"
         d="m 230.559,1584.93 h 1434.16 v 71.9102 H 230.559 Z" /><path
         id="path420"
         style="fill:#473b31;fill-opacity:1;fill-rule:nonzero;stroke:none"
         d="m 280.164,1597.79 h -20.699 v -148.52 l 20.699,24.66 v 123.86" /><path
         id="path422"
         style="fill:#473b31;fill-opacity:1;fill-rule:nonzero;stroke:none"
         d="m 259.465,1417.04 v -266 h 20.699 v 290.69 l -20.699,-24.69" /><path
         id="path424"
         style="fill:#696158;fill-opacity:1;fill-rule:nonzero;stroke:none"
         d="m 429.805,1593.03 -15.867,13.33 -133.774,-132.43 v -32.2 l 149.641,151.3" /><path
         id="path426"
         style="fill:#473b31;fill-opacity:1;fill-rule:nonzero;stroke:none"
         d="m 280.164,1473.93 -20.699,-24.66 v -32.23 l 20.699,24.69 v 32.2" /><path
         id="path428"
         style="fill:#473b31;fill-opacity:1;fill-rule:nonzero;stroke:none"
         d="m 709.355,1139.61 h 1011.43 v 419.949 H 709.355 Z" /><path
         id="path430"
         style="fill:#538d84;fill-opacity:1;fill-rule:nonzero;stroke:none"
         d="m 753.848,1193.67 h 897.492 v 247.988 H 753.848 Z" /><path
         id="path432"
         style="fill:#473b31;fill-opacity:1;fill-rule:nonzero;stroke:none"
         d="m 916.027,1191.81 h 16.2188 v 261.562 H 916.027 Z" /><path
         id="path434"
         style="fill:#473b31;fill-opacity:1;fill-rule:nonzero;stroke:none"
         d="m 1281.9,1230.31 h 20.6133 v 208.98 H 1281.9 Z" /><path
         id="path436"
         style="fill:#473b31;fill-opacity:1;fill-rule:nonzero;stroke:none"
         d="m 921.426,1191.81 h 740.754 v 61.7812 H 921.426 Z" /><path
         id="path438"
         style="fill:#81b8aa;fill-opacity:1;fill-rule:nonzero;stroke:none"
         d="m 700,1370 h 9.35547 v 75 H 700 Z" /><path
         id="path440"
         style="fill:#3f342b;fill-opacity:1;fill-rule:nonzero;stroke:none"
         d="m 1715,1370 h -63.66 v 71.66 H 932.246 V 1445 H 1715 v -75 m -961.152,0 h -44.493 v 75 h 206.672 v -3.34 H 753.848 V 1370" /><path
         id="path442"
         style="fill:#4a7d75;fill-opacity:1;fill-rule:nonzero;stroke:none"
         d="m 1651.34,1370 h -348.83 v 69.29 H 1281.9 V 1370 H 932.246 v 71.66 H 1651.34 V 1370 m -735.313,0 H 753.848 v 71.66 H 916.027 V 1370" /><path
         id="path444"
         style="fill:#3f342b;fill-opacity:1;fill-rule:nonzero;stroke:none"
         d="m 932.246,1370 h -16.219 v 75 h 16.219 v -75" /><path
         id="path446"
         style="fill:#3f342b;fill-opacity:1;fill-rule:nonzero;stroke:none"
         d="m 1281.9,1370 h 20.6133 v 69.2891 H 1281.9 Z" /><path
         id="path448"
         style="fill:#d95f34;fill-opacity:1;fill-rule:nonzero;stroke:none"
         d="M 797.246,1512.56 H 1662.3 l 79.32,-70.57 H 707.117 l 90.129,70.57" /><path
         id="path450"
         style="fill:#f7eac3;fill-opacity:1;fill-rule:nonzero;stroke:none"
         d="m 772.961,1442.44 h -34.77 l 83.657,69.66 h 29.011 l -77.898,-69.66" /><path
         id="path452"
         style="fill:#f7eac3;fill-opacity:1;fill-rule:nonzero;stroke:none"
         d="m 850.703,1442.44 h -34.719 l 70.746,69.66 h 29.012 l -65.039,-69.66" /><path
         id="path454"
         style="fill:#f7eac3;fill-opacity:1;fill-rule:nonzero;stroke:none"
         d="m 928.477,1442.44 h -34.754 l 57.847,69.66 h 28.996 l -52.089,-69.66" /><path
         id="path456"
         style="fill:#f7eac3;fill-opacity:1;fill-rule:nonzero;stroke:none"
         d="m 1006.22,1442.44 h -34.767 l 44.977,69.66 h 29.02 l -39.23,-69.66" /><path
         id="path458"
         style="fill:#f7eac3;fill-opacity:1;fill-rule:nonzero;stroke:none"
         d="m 1083.97,1442.44 h -34.78 l 32.1,69.66 h 29.04 l -26.36,-69.66" /><path
         id="path460"
         style="fill:#f7eac3;fill-opacity:1;fill-rule:nonzero;stroke:none"
         d="m 1161.71,1442.44 h -34.77 l 19.22,69.66 h 29.04 l -13.49,-69.66" /><path
         id="path462"
         style="fill:#f7eac3;fill-opacity:1;fill-rule:nonzero;stroke:none"
         d="m 1239.45,1442.44 h -34.72 l 6.32,69.66 h 29.01 l -0.61,-69.66" /><path
         id="path464"
         style="fill:#f7eac3;fill-opacity:1;fill-rule:nonzero;stroke:none"
         d="m 1317.21,1442.44 h -34.76 l -6.54,69.66 h 29 l 12.3,-69.66" /><path
         id="path466"
         style="fill:#f7eac3;fill-opacity:1;fill-rule:nonzero;stroke:none"
         d="m 1394.93,1442.44 h -34.73 l -19.43,69.66 h 29.01 l 25.15,-69.66" /><path
         id="path468"
         style="fill:#f7eac3;fill-opacity:1;fill-rule:nonzero;stroke:none"
         d="m 1472.71,1442.44 h -34.77 l -32.27,69.66 h 28.99 l 38.05,-69.66" /><path
         id="path470"
         style="fill:#f7eac3;fill-opacity:1;fill-rule:nonzero;stroke:none"
         d="m 1550.41,1442.44 h -34.73 l -45.19,69.66 h 29 l 50.92,-69.66" /><path
         id="path472"
         style="fill:#f7eac3;fill-opacity:1;fill-rule:nonzero;stroke:none"
         d="m 1628.23,1442.44 h -34.81 l -58.04,69.66 h 29 l 63.85,-69.66" /><path
         id="path474"
         style="fill:#f7eac3;fill-opacity:1;fill-rule:nonzero;stroke:none"
         d="m 1705.94,1442.44 h -34.74 l -70.95,69.66 h 28.99 l 76.7,-69.66" /><path
         id="path476"
         style="fill:#9e4827;fill-opacity:1;fill-rule:nonzero;stroke:none"
         d="m 705.293,1427.1 h 1036.33 v 15.7891 H 705.293 Z" /><path
         id="path478"
         style="fill:#50443a;fill-opacity:1;fill-rule:nonzero;stroke:none"
         d="m 68.4688,1558.29 h 1687.43 v 51.8906 H 68.4688 Z" /><path
         id="path480"
         style="fill:#473b31;fill-opacity:1;fill-rule:nonzero;stroke:none"
         d="m 1139.36,1655.99 h 19.1289 v 338.301 H 1139.36 Z" /><path
         id="path482"
         style="fill:#473b31;fill-opacity:1;fill-rule:nonzero;stroke:none"
         d="m 1503.19,1655.99 h 19.1484 v 338.301 H 1503.19 Z" /><path
         id="path484"
         style="fill:#473b31;fill-opacity:1;fill-rule:nonzero;stroke:none"
         d="m 1113.81,1700.65 h 440.453 v 268.102 H 1113.81 Z" /><path
         id="path486"
         style="fill:#f7eac3;fill-opacity:1;fill-rule:nonzero;stroke:none"
         d="m 1129.78,1716.61 h 405.297 v 236.16 H 1129.78 Z" /><path
         id="path488"
         style="fill:#473b31;fill-opacity:1;fill-rule:nonzero;stroke:none"
         d="m 1113.81,1983.1 h 435.633 v 4.7891 H 1113.81 Z" /><path
         id="path490"
         style="fill:#473b31;fill-opacity:1;fill-rule:nonzero;stroke:none"
         d="m 1113.81,1684.7 h 435.633 v 4.7891 H 1113.81 Z" /><path
         id="path492"
         style="fill:#f7eac3;fill-opacity:1;fill-rule:nonzero;stroke:none"
         d="m 931.172,1201.48 h 352.156 v 35.5781 H 931.172 Z" /><path
         id="path494"
         style="fill:#f7eac3;fill-opacity:1;fill-rule:nonzero;stroke:none"
         d="m 1303.13,1203.79 h 349.16 v 35.5898 h -349.16 z" /><path
         id="path496"
         style="fill:#473b31;fill-opacity:1;fill-rule:nonzero;stroke:none"
         d="m 276.309,1192.82 v 40.56 H 146.516 V 1196.7 H 68.4688 v -57.09 H 709.57 v 53.21 H 276.309" /><path
         id="path498"
         style="fill:#473b31;fill-opacity:1;fill-rule:nonzero;stroke:none"
         d="m 479.902,1194.33 h 22.5781 v 112.809 H 479.902 Z" /><path
         id="path500"
         style="fill:#d95f34;fill-opacity:1;fill-rule:nonzero;stroke:none"
         d="m 389.648,1285.99 h 203.066 v 25.4023 H 389.648 Z" /><path
         id="path502"
         style="fill:#473b31;fill-opacity:1;fill-rule:nonzero;stroke:none"
         d="m 350.781,1194.33 h 14.4453 v 45.8086 H 350.781 Z" /><path
         id="path504"
         style="fill:#473b31;fill-opacity:1;fill-rule:nonzero;stroke:none"
         d="m 388.691,1194.33 h 14.4453 v 45.8086 H 388.691 Z" /><path
         id="path506"
         style="fill:#d95f34;fill-opacity:1;fill-rule:nonzero;stroke:none"
         d="m 320.996,1254.18 v -14.44 h 111.926 v 14.44 H 320.996" /><path
         id="path508"
         style="fill:#473b31;fill-opacity:1;fill-rule:nonzero;stroke:none"
         d="m 579.23,1194.33 h 14.4414 v 45.8086 H 579.23 Z" /><path
         id="path510"
         style="fill:#473b31;fill-opacity:1;fill-rule:nonzero;stroke:none"
         d="m 617.141,1194.33 h 14.4414 v 45.8086 H 617.141 Z" /><path
         id="path512"
         style="fill:#d95f34;fill-opacity:1;fill-rule:nonzero;stroke:none"
         d="m 549.453,1254.18 v -14.44 h 111.914 v 14.44 H 549.453" /><path
         id="path514"
         style="fill:#d95f34;fill-opacity:1;fill-rule:nonzero;stroke:none"
         d="m 115.891,1426.14 h 94.3359 v 103.711 H 115.891 Z" /><path
         id="path516"
         style="fill:#9e4827;fill-opacity:1;fill-rule:nonzero;stroke:none"
         d="m 115.891,1513.99 h 94.3359 v 15.8633 H 115.891 Z" /><path
         id="path518"
         style="fill:#696158;fill-opacity:1;fill-rule:nonzero;stroke:none"
         d="m 120.559,1529.34 h 7.92578 v 29.1992 H 120.559 Z" /><path
         id="path520"
         style="fill:#696158;fill-opacity:1;fill-rule:nonzero;stroke:none"
         d="m 197.629,1529.34 h 7.90625 v 29.1992 H 197.629 Z" /><path
         id="path522"
         style="fill:#473b31;fill-opacity:1;fill-rule:nonzero;stroke:none"
         d="m 189.648,1460.8 c 1.868,0 3.36,-1.49 3.36,-3.35 0,-1.86 -1.492,-3.36 -3.36,-3.36 -1.855,0 -3.347,1.5 -3.347,3.36 0,1.86 1.492,3.35 3.347,3.35 z m -5.285,-6.2 c 0.032,-0.51 1.313,-3.11 4.653,-3.34 2.105,-0.14 6.804,1.7 6.765,6.69 -0.051,5.69 -6.738,7.71 -6.738,7.71 h -48.254 c 1.098,-17.83 16.273,-21.65 16.273,-21.65 l -15.277,-0.09 v -2.97 h 49.895 v 3.1 h -20.657 c 9.426,3.01 13.34,10.55 13.34,10.55" /><path
         id="path524"
         style="fill:#473b31;fill-opacity:1;fill-rule:nonzero;stroke:none"
         d="m 158.184,1478.48 c 2.226,-0.4 7.226,-0.58 9.14,-6.49 -0.09,-1.71 0.071,-2.77 -0.508,-4.04 0.813,1.54 2.754,5.64 3.204,9.58 0.261,2.26 -0.997,6.48 -3.172,6.48 -2.168,0 -8.508,-2.32 -6.875,1.91 2.222,3.93 6.765,8.78 7.422,13.79 0.332,3.38 -2.805,7.56 -7.422,7.12 0,0 8.64,-0.12 3.718,-10.41 -1.574,-2.46 -3.879,-5.77 -11.125,-11.34 -1.714,-1.83 -3.855,-3.71 -3.203,-5.44 1.164,-0.98 2.231,-1.16 8.821,-1.16" /><path
         id="path526"
         style="fill:#6a6158;fill-opacity:1;fill-rule:nonzero;stroke:none"
         d="m 749.656,1133.72 h 168.84 v 27.6016 h -168.84 z" /><path
         id="path528"
         style="fill:#60574e;fill-opacity:1;fill-rule:nonzero;stroke:none"
         d="m 746.289,1107.01 h 175.566 v 27.6172 H 746.289 Z" /><path
         id="path530"
         style="fill:#50443a;fill-opacity:1;fill-rule:nonzero;stroke:none"
         d="m 746.289,1080.06 h 175.566 v 27.6133 H 746.289 Z" /><path
         id="path532"
         style="fill:#473b31;fill-opacity:1;fill-rule:nonzero;stroke:none"
         d="m 1396.34,1805.99 -0.98,0.06 h -0.02 c -0.21,0.3 -1.42,2.28 -1.42,8.55 0,2.97 0.27,6.08 0.76,9.25 3.31,-2.81 7.87,-4.53 12.98,-4.53 1.49,0 3.87,0.18 6.58,1.05 -5.4,-7.79 -12.6,-14.38 -17.9,-14.38 z m -198.92,4.78 c -2.06,0 -3.97,0.12 -5.8,0.31 4.24,8.77 7.6,19.42 10.51,30.5 3.96,-5.28 10.09,-7.4 15.64,-7.4 1.77,0 3.42,0.26 5.01,0.64 -0.53,-2.71 -1.06,-5.42 -1.52,-8.07 -4.37,-5.38 -15.48,-15.98 -23.84,-15.98 z m 298.91,25.83 c -1.69,0 -3.26,-0.36 -4.69,-0.97 2.49,8.86 4.39,17.77 4.39,25.69 0,15.17 -9.49,25.37 -23.6,25.37 l -2.53,-0.16 c 0.37,1.25 0.72,2.41 1.03,3.49 2.15,7.29 3.33,11.3 3.33,15.36 0,9.89 -8.68,17.93 -19.35,17.93 -8.26,0 -14.94,-4.82 -16.96,-12.11 -3.48,-11.71 -7.07,-25.6 -10.41,-39.71 -2.9,5.94 -7.38,10.12 -13.26,11.92 -4.08,2.63 -9.15,4.16 -14.06,4.16 -13.11,0 -23.78,-9.16 -31.43,-21.83 -1.66,13.23 -10.71,22.18 -23.24,22.18 -6.5,0 -12.6,-2.88 -18.38,-8.73 -3.21,2.38 -7.26,3.78 -11.71,3.78 -6.08,0 -11.38,-2.93 -14.44,-7.52 -2.26,7.27 -8.98,12.47 -17.24,12.47 -7.39,0 -13.76,-3.81 -17.37,-9.96 -2.84,5.78 -8.97,9.61 -16.42,9.61 -4.96,0 -9.44,-1.67 -12.92,-4.51 l 0.05,1.44 c 0,7.25 0,26.53 -17.25,34.48 l -2.09,0.97 h -0.08 c -2.06,0.99 -5.35,2.31 -9.49,2.31 -27.92,0 -34.69,-37.18 -40.67,-69.97 -2.8,-15.35 -6.24,-34.2 -11.14,-41.31 -8.12,-4.38 -16.02,-12.72 -16.02,-22.4 0,-6.97 5.39,-12.44 12.27,-12.44 3.74,0 6.27,1.38 7.62,2.13 0.64,0.34 1.6,0.87 5.83,0.87 1.33,0 2.67,-0.35 5.1,-1.02 4.08,-1.14 9.68,-2.69 18.61,-2.69 11.87,0 22.96,5.87 32.09,13.38 5.1,-11.57 15.54,-13.2 20.82,-13.2 5.6,0 10.73,1.79 15.34,5.36 4.27,-3.78 9.65,-5.36 14.58,-5.36 5.25,0 10.21,1.81 14.96,5.31 3.52,-3.73 8.45,-5.84 13.35,-5.84 8.15,0 14.95,5.1 17.2,12.97 4.35,-8.56 12.89,-12.97 21.38,-12.97 9.65,0 17.73,6.03 24.04,13.58 6.09,-8.73 15.33,-13.76 27.1,-13.76 9.44,0 17.83,3.27 25.1,8.45 3,-5.04 8.26,-8.27 14.54,-8.27 10.85,0 14.84,7.05 17.1,15.65 3.8,-10.31 13.22,-15.65 22.54,-15.65 21.25,0 31.36,28.14 35.68,40.15 l 0.86,2.39 c 0.92,2.44 1.39,4.75 1.39,6.89 0,6.9 -4.97,12.09 -11.55,12.09" /><path
         id="path534"
         style="fill:#d95f34;fill-opacity:1;fill-rule:nonzero;stroke:none"
         d="m 1226.62,1884.5 c 0,-7.43 -0.88,-15.4 -0.88,-22.65 0,-3.36 0.53,-6.55 0.53,-9.39 0,-5.3 -4.07,-7.78 -8.5,-7.78 -5.84,0 -9.37,3.73 -9.37,11.5 0,12.22 6.9,28.67 6.9,40.7 0,3.55 -0.53,6.73 -2.13,9.39 -0.71,0 -1.24,0 -2.65,-0.36 -10.62,-3.19 -15.74,-81.76 -36.27,-102.29 6.18,-1.05 13.26,-3.36 23.17,-3.36 15.93,0 31.86,19.12 34.16,22.84 0.88,1.41 2.12,2.29 2.83,2.29 0.71,0 1.23,-0.53 1.23,-1.59 0,-0.7 -0.17,-1.41 -0.52,-2.48 -2.13,-6.19 -22.47,-35.39 -45.31,-35.39 -12.92,0 -16.99,3.72 -23.71,3.72 -10.62,0 -10.44,-3.01 -13.45,-3.01 -1.06,0 -1.77,0.7 -1.77,1.94 0,5.49 6.55,11.51 12.22,13.99 18.57,20 12.91,109.18 45.11,109.18 3.72,0 6.37,-2.3 7.27,-2.3 9.2,-4.24 11.14,-13.97 11.14,-24.95" /><path
         id="path536"
         style="fill:#d95f34;fill-opacity:1;fill-rule:nonzero;stroke:none"
         d="m 1245.21,1805.58 c 0,-4.79 1.24,-7.45 3.89,-7.45 10.27,0 16.99,34.16 24.95,70.81 1.23,5.83 5.49,8.48 9.73,8.48 3.9,0 7.61,-2.65 7.61,-7.25 0,-7.08 -14.87,-56.63 -14.87,-68.84 0,-3.2 0.72,-4.78 2.31,-4.78 6.37,0 17.17,22.65 19.11,26.55 1.06,2.11 2.13,3 3.01,3 0.71,0 1.24,-0.53 1.24,-1.76 0,-0.72 -0.18,-1.77 -0.71,-3.02 -2.48,-6.19 -13.97,-35.22 -28.84,-35.22 -5.32,0 -11.68,2.85 -12.04,14.88 -4.77,-9.21 -10.61,-14.88 -17.88,-14.88 -9.9,0 -13.27,7.62 -13.27,18.94 0,17.17 7.43,42.83 10.98,64.06 0.88,5.49 5.49,7.97 9.56,7.97 3.89,0 7.61,-2.3 7.61,-6.55 l -0.19,-1.77 c -5.66,-28.13 -12.2,-51.67 -12.2,-63.17" /><path
         id="path538"
         style="fill:#d95f34;fill-opacity:1;fill-rule:nonzero;stroke:none"
         d="m 1300.95,1785.58 c -3.71,0 -7.79,2.65 -7.79,7.96 l 0.18,1.59 c 3.19,26.55 7.26,44.42 15.58,72.73 0.87,3.19 3.72,4.61 6.54,4.61 4.25,0 8.67,-3.01 8.67,-8.14 0,-4.6 -3.01,-11.87 -4.07,-16.46 7.26,16.63 16.29,29.55 25.49,29.55 10.44,0 13.09,-9.56 13.09,-16.1 0,-20 -17.17,-50.62 -17.17,-61.41 0,-2.3 0.89,-3.72 2.83,-3.72 7.79,0 20,23.36 22.13,26.91 1.06,1.76 2.48,3 3.36,3 l 0.88,-1.24 c 0,-0.71 -0.17,-1.76 -0.71,-3.18 -2.12,-6.38 -15.04,-36.1 -30.43,-36.1 -7.08,0 -13.81,4.96 -13.81,15.57 0,15.93 16.99,47.95 16.99,59.82 0,2.29 -0.88,4.24 -2.83,4.24 -6.55,0 -22.12,-27.43 -29.02,-59.46 l -0.53,-1.24 c -0.89,-4.95 -1.59,-9.2 -2.13,-13.09 -0.71,-3.89 -3.89,-5.84 -7.25,-5.84" /><path
         id="path540"
         style="fill:#d95f34;fill-opacity:1;fill-rule:nonzero;stroke:none"
         d="m 1406.6,1869.99 c -9.91,0 -23.18,-33.45 -23.18,-55.39 0,-11.86 3.53,-19.11 12.92,-19.11 13.97,0 26.72,17.52 31.67,27.61 0.89,1.94 1.95,2.65 2.83,2.65 0.71,0 1.25,-0.54 1.25,-1.78 0,-0.7 -0.19,-1.58 -0.54,-2.65 -6.19,-15.22 -20.52,-35.92 -40.88,-35.92 -17.69,0 -24.6,14.51 -24.6,32.56 0,26.37 15.22,59.11 34.15,59.11 3.9,0 7.44,-1.59 9.57,-3.36 7.95,-1.42 10.97,-10.62 10.97,-20.17 0,-12.75 -3.54,-23.73 -13.1,-23.73 -4.07,0 -7.96,2.31 -7.96,5.49 0,7.08 11.14,13.11 11.14,27.79 0,3.72 -2.47,6.9 -4.24,6.9" /><path
         id="path542"
         style="fill:#d95f34;fill-opacity:1;fill-rule:nonzero;stroke:none"
         d="m 1470.84,1799.56 c 0,-2.83 0.88,-4.43 3.18,-4.43 5.84,0 11.68,13.63 19.11,27.97 0.89,1.76 2.3,3 3.2,3 0.7,0 1.05,-0.53 1.05,-1.59 0,-0.71 -0.17,-1.78 -0.71,-3.19 -2.47,-6.37 -11.32,-35.74 -26.72,-35.74 -7.07,0 -13.8,4.96 -13.8,15.57 0,15.39 13.98,48.14 13.98,59.82 0,2.65 -0.71,4.24 -2.47,4.24 -5.14,0 -19.12,-20.88 -26.73,-53.79 -4.06,-19.13 -3.54,-25.84 -10.62,-25.84 -3.36,0 -6.72,2.48 -6.72,7.78 0,11.5 12.39,74.34 24.42,114.85 0.89,3.19 3.72,4.6 6.9,4.6 4.25,0 8.85,-2.83 8.85,-7.43 0,-5.66 -4.96,-15.58 -13.62,-53.44 6.36,13.98 14.16,24.25 22.29,24.25 10.44,0 13.1,-8.33 13.1,-14.87 0,-19.64 -14.69,-50.27 -14.69,-61.76" /><path
         id="path544"
         style="fill:#584d44;fill-opacity:1;fill-rule:nonzero;stroke:none"
         d="m 1645,1042.83 h 25.9414 v 37.7422 H 1645 Z" /><path
         id="path546"
         style="fill:#584d44;fill-opacity:1;fill-rule:nonzero;stroke:none"
         d="m 1727.55,1042.83 h 25.9492 v 37.7422 H 1727.55 Z" /><path
         id="path548"
         style="fill:#6a6158;fill-opacity:1;fill-rule:nonzero;stroke:none"
         d="m 1611.98,1073.5 h 174.531 v 219.328 H 1611.98 Z" /><path
         id="path550"
         style="fill:#f7eac3;fill-opacity:1;fill-rule:nonzero;stroke:none"
         d="m 1638.49,1100 h 121.512 v 166.332 H 1638.49 Z" /><path
         id="path552"
         style="fill:#b6ac8f;fill-opacity:1;fill-rule:nonzero;stroke:none"
         d="m 1654.41,1231.49 h 89.5508 v 9.0117 H 1654.41 Z" /><path
         id="path554"
         style="fill:#b6ac8f;fill-opacity:1;fill-rule:nonzero;stroke:none"
         d="m 1654.41,1203.96 h 89.5508 v 9 H 1654.41 Z" /><path
         id="path556"
         style="fill:#b6ac8f;fill-opacity:1;fill-rule:nonzero;stroke:none"
         d="m 1654.41,1176.43 h 89.5508 v 9 H 1654.41 Z" /><path
         id="path558"
         style="fill:#b6ac8f;fill-opacity:1;fill-rule:nonzero;stroke:none"
         d="m 1654.41,1148.89 h 89.5508 v 9 H 1654.41 Z" /></g></g></svg>